<mxfile host="app.diagrams.net" agent="Mozilla/5.0 (Windows NT 10.0; Win64; x64) AppleWebKit/537.36 (KHTML, like Gecko) Chrome/129.0.0.0 Safari/537.36" version="24.7.17">
  <diagram name="Page-1" id="3SyeZVvPPm7S9pxuPWgJ">
    <mxGraphModel dx="724" dy="477" grid="1" gridSize="10" guides="1" tooltips="1" connect="1" arrows="1" fold="1" page="1" pageScale="1" pageWidth="850" pageHeight="1100" math="0" shadow="0">
      <root>
        <mxCell id="0" />
        <mxCell id="1" parent="0" />
        <mxCell id="FbX-zLneHMm88paKO20r-3" style="edgeStyle=orthogonalEdgeStyle;rounded=0;orthogonalLoop=1;jettySize=auto;html=1;exitX=0.5;exitY=1;exitDx=0;exitDy=0;entryX=0.5;entryY=1;entryDx=0;entryDy=0;" edge="1" parent="1" source="FbX-zLneHMm88paKO20r-1" target="FbX-zLneHMm88paKO20r-2">
          <mxGeometry relative="1" as="geometry" />
        </mxCell>
        <mxCell id="FbX-zLneHMm88paKO20r-1" value="Pocetak" style="ellipse;whiteSpace=wrap;html=1;" vertex="1" parent="1">
          <mxGeometry x="380" y="20" width="130" height="50" as="geometry" />
        </mxCell>
        <mxCell id="FbX-zLneHMm88paKO20r-2" value="" style="shape=trapezoid;perimeter=trapezoidPerimeter;whiteSpace=wrap;html=1;fixedSize=1;rotation=-180;" vertex="1" parent="1">
          <mxGeometry x="385" y="100" width="115" height="30" as="geometry" />
        </mxCell>
        <mxCell id="FbX-zLneHMm88paKO20r-8" style="edgeStyle=orthogonalEdgeStyle;rounded=0;orthogonalLoop=1;jettySize=auto;html=1;exitX=0.5;exitY=1;exitDx=0;exitDy=0;entryX=0.5;entryY=0;entryDx=0;entryDy=0;" edge="1" parent="1" source="FbX-zLneHMm88paKO20r-4" target="FbX-zLneHMm88paKO20r-5">
          <mxGeometry relative="1" as="geometry" />
        </mxCell>
        <mxCell id="FbX-zLneHMm88paKO20r-4" value="l, d. x" style="text;html=1;align=center;verticalAlign=middle;whiteSpace=wrap;rounded=0;" vertex="1" parent="1">
          <mxGeometry x="415" y="100" width="60" height="30" as="geometry" />
        </mxCell>
        <mxCell id="FbX-zLneHMm88paKO20r-7" style="edgeStyle=orthogonalEdgeStyle;rounded=0;orthogonalLoop=1;jettySize=auto;html=1;exitX=0;exitY=0.5;exitDx=0;exitDy=0;entryX=0.5;entryY=0;entryDx=0;entryDy=0;" edge="1" parent="1" source="FbX-zLneHMm88paKO20r-5" target="FbX-zLneHMm88paKO20r-6">
          <mxGeometry relative="1" as="geometry" />
        </mxCell>
        <mxCell id="FbX-zLneHMm88paKO20r-12" style="edgeStyle=orthogonalEdgeStyle;rounded=0;orthogonalLoop=1;jettySize=auto;html=1;exitX=1;exitY=0.5;exitDx=0;exitDy=0;entryX=0.5;entryY=0;entryDx=0;entryDy=0;" edge="1" parent="1" source="FbX-zLneHMm88paKO20r-5" target="FbX-zLneHMm88paKO20r-9">
          <mxGeometry relative="1" as="geometry" />
        </mxCell>
        <mxCell id="FbX-zLneHMm88paKO20r-5" value="x &amp;lt; l" style="shape=hexagon;perimeter=hexagonPerimeter2;whiteSpace=wrap;html=1;fixedSize=1;" vertex="1" parent="1">
          <mxGeometry x="380" y="150" width="120" height="30" as="geometry" />
        </mxCell>
        <mxCell id="FbX-zLneHMm88paKO20r-17" style="edgeStyle=orthogonalEdgeStyle;rounded=0;orthogonalLoop=1;jettySize=auto;html=1;exitX=0.5;exitY=1;exitDx=0;exitDy=0;" edge="1" parent="1" source="FbX-zLneHMm88paKO20r-6">
          <mxGeometry relative="1" as="geometry">
            <mxPoint x="530" y="329.9999999999999" as="targetPoint" />
            <Array as="points">
              <mxPoint x="310" y="300" />
              <mxPoint x="530" y="300" />
            </Array>
          </mxGeometry>
        </mxCell>
        <mxCell id="FbX-zLneHMm88paKO20r-6" value="lijevo" style="shape=trapezoid;perimeter=trapezoidPerimeter;whiteSpace=wrap;html=1;fixedSize=1;" vertex="1" parent="1">
          <mxGeometry x="250" y="190" width="120" height="30" as="geometry" />
        </mxCell>
        <mxCell id="FbX-zLneHMm88paKO20r-13" style="edgeStyle=orthogonalEdgeStyle;rounded=0;orthogonalLoop=1;jettySize=auto;html=1;exitX=0;exitY=0.5;exitDx=0;exitDy=0;entryX=0.5;entryY=0;entryDx=0;entryDy=0;" edge="1" parent="1" source="FbX-zLneHMm88paKO20r-9" target="FbX-zLneHMm88paKO20r-10">
          <mxGeometry relative="1" as="geometry" />
        </mxCell>
        <mxCell id="FbX-zLneHMm88paKO20r-14" style="edgeStyle=orthogonalEdgeStyle;rounded=0;orthogonalLoop=1;jettySize=auto;html=1;exitX=1;exitY=0.5;exitDx=0;exitDy=0;entryX=0.5;entryY=0;entryDx=0;entryDy=0;" edge="1" parent="1" source="FbX-zLneHMm88paKO20r-9" target="FbX-zLneHMm88paKO20r-11">
          <mxGeometry relative="1" as="geometry" />
        </mxCell>
        <mxCell id="FbX-zLneHMm88paKO20r-9" value="x &amp;gt; d" style="shape=hexagon;perimeter=hexagonPerimeter2;whiteSpace=wrap;html=1;fixedSize=1;" vertex="1" parent="1">
          <mxGeometry x="570" y="190" width="110" height="30" as="geometry" />
        </mxCell>
        <mxCell id="FbX-zLneHMm88paKO20r-15" style="edgeStyle=orthogonalEdgeStyle;rounded=0;orthogonalLoop=1;jettySize=auto;html=1;exitX=0.5;exitY=1;exitDx=0;exitDy=0;" edge="1" parent="1" source="FbX-zLneHMm88paKO20r-10">
          <mxGeometry relative="1" as="geometry">
            <mxPoint x="620" y="299.9999999999999" as="targetPoint" />
          </mxGeometry>
        </mxCell>
        <mxCell id="FbX-zLneHMm88paKO20r-10" value="desno" style="shape=trapezoid;perimeter=trapezoidPerimeter;whiteSpace=wrap;html=1;fixedSize=1;" vertex="1" parent="1">
          <mxGeometry x="415" y="230" width="120" height="30" as="geometry" />
        </mxCell>
        <mxCell id="FbX-zLneHMm88paKO20r-16" style="edgeStyle=orthogonalEdgeStyle;rounded=0;orthogonalLoop=1;jettySize=auto;html=1;exitX=0.5;exitY=1;exitDx=0;exitDy=0;" edge="1" parent="1" source="FbX-zLneHMm88paKO20r-11">
          <mxGeometry relative="1" as="geometry">
            <mxPoint x="620" y="299.9999999999999" as="targetPoint" />
          </mxGeometry>
        </mxCell>
        <mxCell id="FbX-zLneHMm88paKO20r-11" value="unutar" style="shape=trapezoid;perimeter=trapezoidPerimeter;whiteSpace=wrap;html=1;fixedSize=1;" vertex="1" parent="1">
          <mxGeometry x="690" y="230" width="120" height="30" as="geometry" />
        </mxCell>
        <mxCell id="FbX-zLneHMm88paKO20r-18" value="" style="endArrow=classic;html=1;rounded=0;" edge="1" parent="1">
          <mxGeometry width="50" height="50" relative="1" as="geometry">
            <mxPoint x="620" y="300" as="sourcePoint" />
            <mxPoint x="530" y="330" as="targetPoint" />
            <Array as="points">
              <mxPoint x="530" y="300" />
            </Array>
          </mxGeometry>
        </mxCell>
        <mxCell id="FbX-zLneHMm88paKO20r-19" value="KRAJ" style="ellipse;whiteSpace=wrap;html=1;" vertex="1" parent="1">
          <mxGeometry x="470" y="330" width="120" height="40" as="geometry" />
        </mxCell>
        <mxCell id="FbX-zLneHMm88paKO20r-20" style="edgeStyle=orthogonalEdgeStyle;rounded=0;orthogonalLoop=1;jettySize=auto;html=1;exitX=0.5;exitY=1;exitDx=0;exitDy=0;" edge="1" parent="1" source="FbX-zLneHMm88paKO20r-19" target="FbX-zLneHMm88paKO20r-19">
          <mxGeometry relative="1" as="geometry" />
        </mxCell>
        <mxCell id="FbX-zLneHMm88paKO20r-21" value="DA" style="text;html=1;align=center;verticalAlign=middle;whiteSpace=wrap;rounded=0;" vertex="1" parent="1">
          <mxGeometry x="300" y="140" width="60" height="30" as="geometry" />
        </mxCell>
        <mxCell id="FbX-zLneHMm88paKO20r-23" value="NE" style="text;html=1;align=center;verticalAlign=middle;whiteSpace=wrap;rounded=0;" vertex="1" parent="1">
          <mxGeometry x="575" y="140" width="60" height="30" as="geometry" />
        </mxCell>
        <mxCell id="FbX-zLneHMm88paKO20r-24" value="DA" style="text;html=1;align=center;verticalAlign=middle;whiteSpace=wrap;rounded=0;" vertex="1" parent="1">
          <mxGeometry x="460" y="180" width="60" height="30" as="geometry" />
        </mxCell>
        <mxCell id="FbX-zLneHMm88paKO20r-25" value="NE" style="text;html=1;align=center;verticalAlign=middle;whiteSpace=wrap;rounded=0;" vertex="1" parent="1">
          <mxGeometry x="707" y="180" width="60" height="30" as="geometry" />
        </mxCell>
      </root>
    </mxGraphModel>
  </diagram>
</mxfile>
